# xmcd
#
# Track frame offsets: 
#        150
#        13012
#        32253
#        47537
#        61248
#        79532
#        97042
#        110595
#        126092
#        145663
#
# Disc length: 2100 seconds
#
# Revision: 3
# Processed by: cddbd v1.5.2PL0 Copyright (c) Steve Scherf et al.
# Submitted via: ExactAudioCopy v1.3
#
DISCID=7508320a
DTITLE=Lynn Anderson - Cowboy's Sweetheart
DYEAR=1992
DGENRE=Country
TTITLE0=I Want To Be A Cowboy's Sweetheart
TTITLE1=Ponies
TTITLE2=Desperado
TTITLE3=Even Cowgirls Get The Blues
TTITLE4=Run For The Roses
TTITLE5=Someday Soon
TTITLE6=Don't Fence Me In
TTITLE7=The Wayward Wind
TTITLE8=The Red River Valley
TTITLE9=Happy Trails
EXTD=
EXTT0=
EXTT1=
EXTT2=
EXTT3=
EXTT4=
EXTT5=
EXTT6=
EXTT7=
EXTT8=
EXTT9=
PLAYORDER=
